<svg width="8" height="8" viewBox="0 0 8 8" fill="none" xmlns="http://www.w3.org/2000/svg">
<path fill-rule="evenodd" clip-rule="evenodd" d="M2.24114e-05 4C2.24114e-05 4.15153 0.0527005 4.29684 0.146469 4.40399C0.240237 4.51113 0.367414 4.57133 0.500022 4.57133L6.29302 4.57133L4.14602 7.02345C4.09953 7.07657 4.06266 7.13964 4.0375 7.20904C4.01234 7.27844 3.99939 7.35283 3.99939 7.42795C3.99939 7.50308 4.01234 7.57746 4.0375 7.64687C4.06266 7.71627 4.09953 7.77933 4.14602 7.83245C4.19251 7.88557 4.2477 7.92771 4.30844 7.95646C4.36918 7.9852 4.43428 8 4.50002 8C4.56577 8 4.63087 7.9852 4.69161 7.95646C4.75235 7.92771 4.80753 7.88557 4.85402 7.83245L7.85402 4.4045C7.90059 4.35143 7.93753 4.28838 7.96273 4.21897C7.98794 4.14956 8.00092 4.07515 8.00092 4C8.00092 3.92485 7.98794 3.85044 7.96273 3.78103C7.93753 3.71162 7.90059 3.64857 7.85402 3.5955L4.85402 0.167549C4.76014 0.0602692 4.6328 0 4.50002 0C4.36725 0 4.23991 0.0602692 4.14602 0.167549C4.05214 0.274829 3.99939 0.420331 3.99939 0.572047C3.99939 0.723764 4.05214 0.869266 4.14602 0.976546L6.29302 3.42867L0.500022 3.42867C0.367414 3.42867 0.240237 3.48887 0.146469 3.59601C0.0527005 3.70316 2.24114e-05 3.84848 2.24114e-05 4Z" fill="white"/>
</svg>
