<svg width="18" height="18" viewBox="0 0 18 18" fill="none" xmlns="http://www.w3.org/2000/svg">
<path d="M16.875 12.9375V11.8125H15.6994C15.6151 11.3117 15.4181 10.8366 15.1234 10.4231L15.9548 9.59062L15.1594 8.79525L14.3274 9.62719C13.9138 9.33213 13.4385 9.13497 12.9375 9.05063V7.875H11.8125V9.05063C11.3117 9.13488 10.8366 9.33184 10.4231 9.62663L9.59062 8.79525L8.79525 9.59062L9.62719 10.4226C9.33219 10.8362 9.13504 11.3115 9.05063 11.8125H7.875V12.9375H9.05063C9.13496 13.4383 9.33191 13.9133 9.62663 14.3269L8.79525 15.1594L9.59062 15.9548L10.4226 15.1228C10.8362 15.4179 11.3115 15.615 11.8125 15.6994V16.875H12.9375V15.6994C13.4383 15.6151 13.9134 15.4182 14.3269 15.1234L15.1594 15.9548L15.9548 15.1594L15.1228 14.3274C15.4178 13.9138 15.615 13.4385 15.6994 12.9375H16.875ZM12.375 14.625C11.93 14.625 11.495 14.493 11.125 14.2458C10.755 13.9986 10.4666 13.6472 10.2963 13.236C10.126 12.8249 10.0814 12.3725 10.1682 11.936C10.255 11.4996 10.4693 11.0987 10.784 10.784C11.0987 10.4693 11.4996 10.255 11.936 10.1682C12.3725 10.0814 12.8249 10.126 13.236 10.2963C13.6472 10.4666 13.9986 10.755 14.2458 11.125C14.493 11.495 14.625 11.93 14.625 12.375C14.6243 12.9715 14.387 13.5434 13.9652 13.9652C13.5434 14.387 12.9715 14.6243 12.375 14.625Z" fill="#107DCC"/>
<path d="M15.75 3.375C15.75 3.07663 15.6315 2.79048 15.4205 2.5795C15.2095 2.36853 14.9234 2.25 14.625 2.25H12.375V1.125H11.25V2.25H6.75V1.125H5.625V2.25H3.375C3.07663 2.25 2.79048 2.36853 2.5795 2.5795C2.36853 2.79048 2.25 3.07663 2.25 3.375V14.625C2.25 14.9234 2.36853 15.2095 2.5795 15.4205C2.79048 15.6315 3.07663 15.75 3.375 15.75H5.625V14.625H3.375V3.375H5.625V4.5H6.75V3.375H11.25V4.5H12.375V3.375H14.625V6.75H15.75V3.375Z" fill="#107DCC"/>
</svg>
