<svg width="18" height="18" viewBox="0 0 18 18" fill="none" xmlns="http://www.w3.org/2000/svg">
<path d="M15 2.25H9C8.5875 2.25 8.25 2.5875 8.25 3V4.2075L8.2575 4.215L12.0075 7.59C12.48 8.01 12.75 8.625 12.75 9.2625V9.75H14.25V11.25H12.75V12.75H14.25V14.25H12.75V15.75H15C15.4125 15.75 15.75 15.4125 15.75 15V3C15.75 2.5875 15.4125 2.25 15 2.25ZM11.25 5.25H9.75V3.75H11.25V5.25ZM14.25 8.25H12.75V6.75H14.25V8.25ZM14.25 5.25H12.75V3.75H14.25V5.25Z" fill="black"/>
<path d="M11.25 15V9.26252C11.2497 9.15786 11.2276 9.05441 11.185 8.95883C11.1423 8.86324 11.0802 8.77764 11.0025 8.70752L7.25249 5.33252C7.11655 5.20491 6.93642 5.135 6.74999 5.13752C6.56999 5.13752 6.38999 5.20502 6.24749 5.33252L2.49749 8.70752C2.41866 8.77672 2.35573 8.86214 2.31301 8.95794C2.27029 9.05373 2.24879 9.15763 2.24999 9.26252V15C2.24999 15.4125 2.58749 15.75 2.99999 15.75H4.49999C4.91249 15.75 5.24999 15.4125 5.24999 15V12H8.24999V15C8.24999 15.4125 8.58749 15.75 8.99999 15.75H10.5C10.9125 15.75 11.25 15.4125 11.25 15Z" fill="black"/>
</svg>
