<svg width="25" height="25" viewBox="0 0 25 25" fill="none" xmlns="http://www.w3.org/2000/svg">
<path d="M12.5 25C19.4036 25 25 19.4036 25 12.5C25 5.59644 19.4036 0 12.5 0C5.59644 0 0 5.59644 0 12.5C0 19.4036 5.59644 25 12.5 25Z" fill="#110F10"/>
<path d="M11.2951 13.6914C13.0119 15.4082 14.6946 16.1047 15.3006 15.4986L16.1328 14.6666C16.4081 14.3913 16.7815 14.2366 17.1708 14.2366C17.5601 14.2366 17.9335 14.3913 18.2088 14.6666L20.0772 16.5349C20.3525 16.8102 20.5071 17.1836 20.5071 17.5729C20.5071 17.9622 20.3525 18.3356 20.0772 18.6109L18.6215 20.0666C17.2461 21.442 13.1781 19.606 9.27932 15.7074C7.33088 13.758 6.05295 11.9219 5.22698 10.1953C4.401 8.46873 4.23362 7.05252 4.92092 6.36521L6.37659 4.90955C6.65188 4.63427 7.02526 4.47961 7.41458 4.47961C7.80389 4.47961 8.17727 4.63427 8.45256 4.90955L10.3209 6.77732C10.5962 7.05262 10.7509 7.42599 10.7509 7.81531C10.7509 8.20463 10.5962 8.578 10.3209 8.8533L9.48811 9.68748C8.88206 10.2929 9.57834 11.9754 11.2951 13.6914Z" fill="#EEEFEE"/>
</svg>
