<svg width="20" height="20" viewBox="0 0 20 20" fill="none" xmlns="http://www.w3.org/2000/svg">
<path d="M10 20C8.64583 20 7.35026 19.7363 6.11328 19.209C4.8763 18.6816 3.81185 17.972 2.91992 17.0801C2.02799 16.1882 1.31836 15.1237 0.791016 13.8867C0.263672 12.6497 0 11.3542 0 10C0 8.64583 0.263672 7.35026 0.791016 6.11328C1.31836 4.8763 2.02799 3.81185 2.91992 2.91992C3.81185 2.02799 4.8763 1.31836 6.11328 0.791016C7.35026 0.263672 8.64583 0 10 0C11.3542 0 12.6497 0.263672 13.8867 0.791016C15.1237 1.31836 16.1882 2.02799 17.0801 2.91992C17.972 3.81185 18.6816 4.8763 19.209 6.11328C19.7363 7.35026 20 8.64583 20 10C20 11.3542 19.7363 12.6497 19.209 13.8867C18.6816 15.1237 17.972 16.1882 17.0801 17.0801C16.1882 17.972 15.1237 18.6816 13.8867 19.209C12.6497 19.7363 11.3542 20 10 20ZM15.8691 6.61133C15.6152 6.35742 15.306 6.23047 14.9414 6.23047C14.5768 6.23047 14.2708 6.36068 14.0234 6.62109L8.73047 11.8945L5.95703 9.12109C5.70964 8.86068 5.40365 8.73047 5.03906 8.73047C4.67448 8.73047 4.36523 8.85742 4.11133 9.11133C3.85742 9.36523 3.73047 9.67448 3.73047 10.0391C3.73047 10.4036 3.86068 10.7096 4.12109 10.957L7.77344 14.6094C8.03385 14.8828 8.35938 15.013 8.75 15C9.1276 15.013 9.44661 14.8828 9.70703 14.6094L15.8594 8.45703C16.1198 8.20964 16.25 7.90365 16.25 7.53906C16.25 7.17448 16.123 6.86523 15.8691 6.61133Z" fill="#4198D7"/>
</svg>
