<svg width="16" height="16" viewBox="0 0 16 16" fill="none" xmlns="http://www.w3.org/2000/svg">
<path fill-rule="evenodd" clip-rule="evenodd" d="M8 15.2C9.90956 15.2 11.7409 14.4415 13.0912 13.0912C14.4414 11.741 15.2 9.90961 15.2 8.00005C15.2 6.09049 14.4414 4.25914 13.0912 2.90888C11.7409 1.55862 9.90956 0.800049 8 0.800049C6.09044 0.800049 4.2591 1.55862 2.90883 2.90888C1.55857 4.25914 0.800003 6.09049 0.800003 8.00005C0.800003 9.90961 1.55857 11.741 2.90883 13.0912C4.2591 14.4415 6.09044 15.2 8 15.2ZM5.3 3.50005C5.06131 3.50005 4.83239 3.59487 4.66361 3.76365C4.49482 3.93244 4.4 4.16135 4.4 4.40005C4.4 4.63874 4.49482 4.86766 4.66361 5.03644C4.83239 5.20523 5.06131 5.30005 5.3 5.30005H6.2C6.51596 5.30006 6.82635 5.38323 7.09998 5.54121C7.3736 5.6992 7.60082 5.92642 7.7588 6.20005H5.3C5.06131 6.20005 4.83239 6.29487 4.66361 6.46365C4.49482 6.63244 4.4 6.86135 4.4 7.10005C4.4 7.33874 4.49482 7.56766 4.66361 7.73644C4.83239 7.90523 5.06131 8.00005 5.3 8.00005H7.7588C7.60082 8.27368 7.3736 8.5009 7.09998 8.65888C6.82635 8.81686 6.51596 8.90004 6.2 8.90005H5.3C5.12203 8.90009 4.94806 8.95289 4.80009 9.05179C4.65212 9.15068 4.5368 9.29123 4.46869 9.45566C4.40059 9.62009 4.38277 9.80102 4.41748 9.97558C4.45219 10.1501 4.53787 10.3105 4.6637 10.4363L7.3637 13.1363C7.53344 13.3003 7.76079 13.391 7.99676 13.389C8.23274 13.3869 8.45847 13.2923 8.62534 13.1254C8.79221 12.9585 8.88686 12.7328 8.88891 12.4968C8.89096 12.2608 8.80024 12.0335 8.6363 11.8637L7.3016 10.5281C7.87989 10.3417 8.40171 10.0122 8.81866 9.57028C9.2356 9.12832 9.53415 8.5882 9.6866 8.00005H10.7C10.9387 8.00005 11.1676 7.90523 11.3364 7.73644C11.5052 7.56766 11.6 7.33874 11.6 7.10005C11.6 6.86135 11.5052 6.63244 11.3364 6.46365C11.1676 6.29487 10.9387 6.20005 10.7 6.20005H9.6866C9.60514 5.88465 9.48099 5.58185 9.3176 5.30005H10.7C10.9387 5.30005 11.1676 5.20523 11.3364 5.03644C11.5052 4.86766 11.6 4.63874 11.6 4.40005C11.6 4.16135 11.5052 3.93244 11.3364 3.76365C11.1676 3.59487 10.9387 3.50005 10.7 3.50005H5.3Z" fill="#107DCC"/>
</svg>
