<svg width="53" height="52" viewBox="0 0 53 52" fill="none" xmlns="http://www.w3.org/2000/svg">
<path d="M26.5 37.9167C29.2604 37.9167 31.6072 36.9684 33.5402 35.0718C35.4732 33.1753 36.439 30.8736 36.4375 28.1667C36.4375 25.4583 35.471 23.1559 33.538 21.2593C31.605 19.3628 29.259 18.4152 26.5 18.4167C23.7396 18.4167 21.3929 19.3649 19.4599 21.2615C17.5268 23.1581 16.5611 25.4598 16.5625 28.1667C16.5625 30.875 17.529 33.1774 19.4621 35.074C21.3951 36.9706 23.7411 37.9181 26.5 37.9167ZM26.5 33.5833C24.9542 33.5833 23.6476 33.0597 22.5802 32.0125C21.5129 30.9653 20.9792 29.6833 20.9792 28.1667C20.9792 26.65 21.5129 25.3681 22.5802 24.3208C23.6476 23.2736 24.9542 22.75 26.5 22.75C28.0459 22.75 29.3525 23.2736 30.4198 24.3208C31.4872 25.3681 32.0209 26.65 32.0209 28.1667C32.0209 29.6833 31.4872 30.9653 30.4198 32.0125C29.3525 33.0597 28.0459 33.5833 26.5 33.5833ZM8.83336 45.5C7.61877 45.5 6.57865 45.0753 5.71298 44.226C4.84732 43.3767 4.41522 42.3569 4.41669 41.1667V15.1667C4.41669 13.975 4.84952 12.9545 5.71519 12.1052C6.58086 11.2558 7.62025 10.8319 8.83336 10.8333H15.7896L19.875 6.5H33.125L37.2104 10.8333H44.1667C45.3813 10.8333 46.4214 11.258 47.2871 12.1073C48.1527 12.9567 48.5848 13.9764 48.5834 15.1667V41.1667C48.5834 42.3583 48.1505 43.3788 47.2849 44.2282C46.4192 45.0775 45.3798 45.5014 44.1667 45.5H8.83336ZM44.1667 41.1667V15.1667H35.2229L31.1927 10.8333H21.8073L17.7771 15.1667H8.83336V41.1667H44.1667Z" fill="black"/>
</svg>
