<svg width="26" height="26" viewBox="0 0 26 26" fill="none" xmlns="http://www.w3.org/2000/svg">
<path fill-rule="evenodd" clip-rule="evenodd" d="M17.875 24.375C19.5989 24.375 21.2522 23.6902 22.4712 22.4712C23.6902 21.2522 24.375 19.5989 24.375 17.875C24.375 16.1511 23.6902 14.4978 22.4712 13.2788C21.2522 12.0598 19.5989 11.375 17.875 11.375C16.1511 11.375 14.4978 12.0598 13.2788 13.2788C12.0598 14.4978 11.375 16.1511 11.375 17.875C11.375 19.5989 12.0598 21.2522 13.2788 22.4712C14.4978 23.6902 16.1511 24.375 17.875 24.375ZM26 17.875C26 20.0299 25.144 22.0965 23.6202 23.6202C22.0965 25.144 20.0299 26 17.875 26C15.7201 26 13.6535 25.144 12.1298 23.6202C10.606 22.0965 9.75 20.0299 9.75 17.875C9.75 15.7201 10.606 13.6535 12.1298 12.1298C13.6535 10.606 15.7201 9.75 17.875 9.75C20.0299 9.75 22.0965 10.606 23.6202 12.1298C25.144 13.6535 26 15.7201 26 17.875Z" fill="#A5C014"/>
<path d="M15.3368 19.409C15.4132 20.3775 16.1786 21.1315 17.5517 21.2225V21.9375H18.1611V21.2176C19.583 21.1185 20.4133 20.358 20.4133 19.2563C20.4133 18.252 19.7796 17.7352 18.6421 17.4688L18.1611 17.355V15.405C18.7721 15.4749 19.1588 15.808 19.2515 16.2695H20.3207C20.2443 15.3351 19.4432 14.6055 18.1611 14.5259V13.8125H17.5517V14.5437C16.3378 14.6624 15.5123 15.392 15.5123 16.4255C15.5123 17.3387 16.1266 17.9205 17.1487 18.1577L17.5517 18.2569V20.3239C16.9277 20.2296 16.5133 19.8851 16.4207 19.409H15.3352H15.3368ZM17.5468 17.2088C16.9472 17.0706 16.6222 16.7862 16.6222 16.3605C16.6222 15.8827 16.9732 15.5252 17.5517 15.4212V17.2088H17.5468ZM18.2488 18.421C18.9785 18.59 19.3132 18.863 19.3132 19.3456C19.3132 19.8965 18.8956 20.2735 18.1611 20.3434V18.4015L18.2488 18.421Z" fill="#A5C014"/>
<path d="M1.625 0C1.19402 0 0.780698 0.171205 0.475951 0.475951C0.171205 0.780698 0 1.19402 0 1.625L0 14.625C0 15.056 0.171205 15.4693 0.475951 15.774C0.780698 16.0788 1.19402 16.25 1.625 16.25H8.25988C8.35413 15.691 8.4955 15.1482 8.67912 14.625H4.875C4.875 13.763 4.53259 12.9364 3.9231 12.3269C3.3136 11.7174 2.48695 11.375 1.625 11.375V4.875C2.48695 4.875 3.3136 4.53259 3.9231 3.9231C4.53259 3.3136 4.875 2.48695 4.875 1.625H21.125C21.125 2.48695 21.4674 3.3136 22.0769 3.9231C22.6864 4.53259 23.513 4.875 24.375 4.875V10.608C24.9925 11.1605 25.5401 11.791 26 12.4833V1.625C26 1.19402 25.8288 0.780698 25.524 0.475951C25.2193 0.171205 24.806 0 24.375 0L1.625 0Z" fill="#A5C014"/>
<path d="M16.2468 8.2599L16.25 8.12502C16.2497 7.56536 16.1048 7.01526 15.8295 6.52802C15.5541 6.04077 15.1576 5.63288 14.6784 5.34386C14.1991 5.05484 13.6533 4.89448 13.0939 4.87831C12.5345 4.86214 11.9803 4.99071 11.4852 5.25157C10.99 5.51242 10.5706 5.89673 10.2676 6.36726C9.96458 6.83779 9.7882 7.37859 9.75554 7.9373C9.72288 8.49601 9.83505 9.05369 10.0812 9.55632C10.3273 10.0589 10.6991 10.4895 11.1605 10.8063C12.5641 9.46934 14.3354 8.58257 16.2468 8.2599Z" fill="#A5C014"/>
</svg>
