<svg width="20" height="20" viewBox="0 0 20 20" fill="none" xmlns="http://www.w3.org/2000/svg">
<path d="M9.49169 8.65844L6.25002 11.8976L3.00836 8.65844C2.36758 8.01736 1.93127 7.20069 1.7546 6.31167C1.57792 5.42265 1.66882 4.5012 2.01578 3.66383C2.36275 2.82646 2.9502 2.11077 3.70388 1.60724C4.45756 1.10371 5.34362 0.834961 6.25002 0.834961C7.15643 0.834961 8.04248 1.10371 8.79616 1.60724C9.54984 2.11077 10.1373 2.82646 10.4843 3.66383C10.8312 4.5012 10.9221 5.42265 10.7454 6.31167C10.5688 7.20069 10.1325 8.01736 9.49169 8.65844ZM6.25002 7.08344C6.69205 7.08344 7.11597 6.90784 7.42853 6.59528C7.74109 6.28272 7.91669 5.8588 7.91669 5.41677C7.91669 4.97475 7.74109 4.55082 7.42853 4.23826C7.11597 3.9257 6.69205 3.75011 6.25002 3.75011C5.80799 3.75011 5.38407 3.9257 5.07151 4.23826C4.75895 4.55082 4.58336 4.97475 4.58336 5.41677C4.58336 5.8588 4.75895 6.28272 5.07151 6.59528C5.38407 6.90784 5.80799 7.08344 6.25002 7.08344ZM16.9917 16.1584L13.75 19.3984L10.5084 16.1576C9.86758 15.5165 9.43127 14.6999 9.2546 13.8108C9.07793 12.9218 9.16882 12.0004 9.51578 11.163C9.86275 10.3256 10.4502 9.60994 11.2039 9.10641C11.9576 8.60288 12.8436 8.33413 13.75 8.33413C14.6564 8.33413 15.5425 8.60288 16.2962 9.10641C17.0498 9.60994 17.6373 10.3256 17.9843 11.163C18.3312 12.0004 18.4221 12.9218 18.2454 13.8108C18.0688 14.6999 17.6325 15.5165 16.9917 16.1576V16.1584ZM13.75 14.5834C14.1921 14.5834 14.616 14.4078 14.9285 14.0953C15.2411 13.7827 15.4167 13.3588 15.4167 12.9168C15.4167 12.4747 15.2411 12.0508 14.9285 11.7383C14.616 11.4257 14.1921 11.2501 13.75 11.2501C13.308 11.2501 12.8841 11.4257 12.5715 11.7383C12.259 12.0508 12.0834 12.4747 12.0834 12.9168C12.0834 13.3588 12.259 13.7827 12.5715 14.0953C12.8841 14.4078 13.308 14.5834 13.75 14.5834Z" fill="#107DCC"/>
</svg>
