<svg width="18" height="18" viewBox="0 0 18 18" fill="none" xmlns="http://www.w3.org/2000/svg">
<path d="M8.71028 0.504883L0.5625 4.4279V6.46886H17.4375V4.41707L8.71028 0.504883ZM16.3125 5.34386H1.6875V5.13482L8.72722 1.74534L16.3125 5.14565V5.34386Z" fill="#107DCC"/>
<path d="M1.6875 14.3438H16.3125V15.4688H1.6875V14.3438Z" fill="#107DCC"/>
<path d="M0.5625 16.3125H17.4375V17.4375H0.5625V16.3125Z" fill="#107DCC"/>
<path d="M1.96875 7.59375H3.09375V13.2188H1.96875V7.59375Z" fill="#107DCC"/>
<path d="M14.9062 7.59375H16.0312V13.2188H14.9062V7.59375Z" fill="#107DCC"/>
<path d="M11.5312 7.59375H12.6562V13.2188H11.5312V7.59375Z" fill="#107DCC"/>
<path d="M5.34375 7.59375H6.46875V13.2188H5.34375V7.59375Z" fill="#107DCC"/>
<path d="M8.4375 7.59375H9.5625V13.2188H8.4375V7.59375Z" fill="#107DCC"/>
</svg>
