<svg width="22" height="22" viewBox="0 0 22 22" fill="none" xmlns="http://www.w3.org/2000/svg">
<path d="M20.1667 18.3334V11.1596C20.1667 10.6605 20.0649 10.1666 19.8674 9.70827C19.6699 9.24991 19.3809 8.83669 19.0181 8.49393L12.2595 2.1066C11.9191 1.78478 11.4684 1.60547 11 1.60547C10.5316 1.60547 10.0809 1.78478 9.7405 2.1066L2.98192 8.49393C2.61912 8.83669 2.33013 9.24991 2.13263 9.70827C1.93513 10.1666 1.83328 10.6605 1.83334 11.1596V18.3334C1.83334 18.8197 2.02649 19.286 2.37031 19.6298C2.71412 19.9736 3.18044 20.1668 3.66667 20.1668H18.3333C18.8196 20.1668 19.2859 19.9736 19.6297 19.6298C19.9735 19.286 20.1667 18.8197 20.1667 18.3334Z" stroke="#4198D7" stroke-width="2" stroke-linecap="round" stroke-linejoin="round"/>
</svg>
