<svg width="8" height="9" viewBox="0 0 8 9" fill="none" xmlns="http://www.w3.org/2000/svg">
<path d="M4 0C5.06087 0 6.07828 0.3838 6.82843 1.06697C7.57857 1.75014 8 2.67671 8 3.64286C8 5.151 6.73778 6.73119 4.26667 8.41905C4.18974 8.47159 4.09616 8.5 4 8.5C3.90384 8.5 3.81026 8.47159 3.73333 8.41905C1.26222 6.73119 0 5.151 0 3.64286C0 2.67671 0.421427 1.75014 1.17157 1.06697C1.92172 0.3838 2.93913 0 4 0ZM4 2.42857C3.64638 2.42857 3.30724 2.5565 3.05719 2.78423C2.80714 3.01195 2.66667 3.32081 2.66667 3.64286C2.66667 3.96491 2.80714 4.27376 3.05719 4.50149C3.30724 4.72921 3.64638 4.85714 4 4.85714C4.35362 4.85714 4.69276 4.72921 4.94281 4.50149C5.19286 4.27376 5.33333 3.96491 5.33333 3.64286C5.33333 3.32081 5.19286 3.01195 4.94281 2.78423C4.69276 2.5565 4.35362 2.42857 4 2.42857Z" fill="#36791F"/>
</svg>
