<svg width="25" height="25" viewBox="0 0 25 25" fill="none" xmlns="http://www.w3.org/2000/svg">
<path d="M12.5 23.8055C12.9375 23.7954 13.3573 23.631 13.6851 23.3412C14.013 23.0514 14.2279 22.6551 14.2917 22.2222H10.6389C10.7045 22.6668 10.9294 23.0725 11.2717 23.3638C11.6141 23.655 12.0506 23.812 12.5 23.8055Z" fill="black"/>
<path d="M22.5764 19.3264C21.9067 18.7294 21.3205 18.0451 20.8333 17.2917C20.3015 16.2518 19.9828 15.1162 19.8958 13.9514V10.5209C19.893 10.1042 19.8559 9.6884 19.7847 9.27781C19.2381 9.16854 18.7128 8.97155 18.2292 8.69447C18.4135 9.28811 18.5072 9.90619 18.5069 10.5278V13.9584C18.5921 15.3792 18.9829 16.7649 19.6528 18.0209C20.1322 18.7806 20.7011 19.48 21.3472 20.1042H3.5625C4.20862 19.48 4.7775 18.7806 5.25695 18.0209C5.92682 16.7649 6.31766 15.3792 6.40278 13.9584V10.5209C6.39912 9.71717 6.55403 8.92065 6.85864 8.17692C7.16325 7.43318 7.61157 6.75683 8.17793 6.1866C8.74429 5.61637 9.41757 5.16345 10.1592 4.85379C10.9009 4.54412 11.6963 4.38379 12.5 4.38197C13.6762 4.38291 14.8261 4.73076 15.8056 5.38197C15.6976 4.98543 15.637 4.5775 15.625 4.16669V3.72919C14.8999 3.3725 14.1209 3.13787 13.3194 3.03475V2.15975C13.3194 1.91387 13.2218 1.67806 13.0479 1.5042C12.874 1.33034 12.6382 1.23267 12.3924 1.23267C12.1465 1.23267 11.9107 1.33034 11.7368 1.5042C11.563 1.67806 11.4653 1.91387 11.4653 2.15975V3.06947C9.67064 3.32263 8.02818 4.21652 6.84113 5.58609C5.65408 6.95567 5.00259 8.70846 5.00695 10.5209V13.9514C4.91997 15.1162 4.60124 16.2518 4.06945 17.2917C3.59089 18.0433 3.01403 18.7276 2.35417 19.3264C2.28009 19.3915 2.22072 19.4716 2.18001 19.5614C2.1393 19.6512 2.11818 19.7486 2.11806 19.8472V20.7917C2.11806 20.9759 2.19122 21.1525 2.32146 21.2827C2.45169 21.413 2.62832 21.4861 2.8125 21.4861H22.1181C22.3022 21.4861 22.4789 21.413 22.6091 21.2827C22.7393 21.1525 22.8125 20.9759 22.8125 20.7917V19.8472C22.8124 19.7486 22.7913 19.6512 22.7505 19.5614C22.7098 19.4716 22.6505 19.3915 22.5764 19.3264Z" fill="black"/>
<path d="M20.8333 7.63878C22.751 7.63878 24.3056 6.08421 24.3056 4.16656C24.3056 2.2489 22.751 0.694336 20.8333 0.694336C18.9157 0.694336 17.3611 2.2489 17.3611 4.16656C17.3611 6.08421 18.9157 7.63878 20.8333 7.63878Z" fill="#D30000"/>
</svg>
