<svg width="24" height="18" viewBox="0 0 24 18" fill="none" xmlns="http://www.w3.org/2000/svg">
<path d="M9.66667 7.74992H6.2845L6.28567 7.73867C6.438 6.93946 6.73615 6.18036 7.163 5.50492C7.7982 4.50219 8.68917 3.71637 9.72967 3.24117C10.082 3.08117 10.4495 2.95867 10.824 2.87742C11.6009 2.70867 12.4015 2.70867 13.1783 2.87742C14.2948 3.12254 15.3193 3.71419 16.1242 4.57867L17.7762 2.81367C17.0316 2.01572 16.1507 1.37872 15.1815 0.937421C14.6872 0.713208 14.1733 0.542363 13.6473 0.427421C12.5621 0.191185 11.4437 0.191185 10.3585 0.427421C9.83216 0.542839 9.31785 0.7141 8.82317 0.938671C7.36545 1.6013 6.11759 2.70128 5.22983 4.10617C4.63237 5.05349 4.21456 6.11741 4.00017 7.23742C3.9675 7.40617 3.95 7.57867 3.92667 7.74992H0.333334L5 12.7499L9.66667 7.74992ZM14.3333 10.2499H17.7155L17.7143 10.2599C17.4095 11.8621 16.5281 13.2713 15.2608 14.1824C14.6306 14.6401 13.922 14.9596 13.176 15.1224C12.3995 15.2912 11.5993 15.2912 10.8228 15.1224C10.0769 14.9592 9.36841 14.6398 8.738 14.1824C8.42839 13.958 8.13932 13.7027 7.87467 13.4199L6.225 15.1874C6.96993 15.9852 7.85125 16.6217 8.82083 17.0624C9.3155 17.2874 9.83233 17.4587 10.355 17.5724C11.4398 17.8088 12.5579 17.8088 13.6427 17.5724C15.734 17.1074 17.5735 15.7867 18.7702 13.8912C19.367 12.9446 19.7845 11.8815 19.9987 10.7624C20.0302 10.5937 20.0488 10.4212 20.0722 10.2499H23.6667L19 5.24992L14.3333 10.2499Z" fill="black"/>
</svg>
