<svg width="18" height="18" viewBox="0 0 18 18" fill="none" xmlns="http://www.w3.org/2000/svg">
<path d="M9 8.64005C8.46 8.64005 8.1 9.00005 8.1 9.54005C8.1 9.90005 8.37 10.17 8.64 10.26L8.37 11.52H9.54L9.27 10.26C9.63 10.17 9.81 9.90005 9.81 9.54005C9.9 9.00005 9.54 8.64005 9 8.64005ZM9.09 4.77005C8.46 4.77005 7.83 5.22005 7.83 5.85005V7.20005H10.26V5.85005C10.17 5.22005 9.72 4.77005 9.09 4.77005ZM9 1.80005L2.7 4.50005V7.20005C2.79 11.16 5.31 14.67 9 16.11C12.69 14.67 15.21 11.16 15.3 7.20005V4.50005L9 1.80005ZM12.6 11.7C12.6 12.24 12.24 12.6 11.7 12.6H6.3C5.76 12.6 5.4 12.24 5.4 11.7V8.10005C5.4 7.56005 5.76 7.20005 6.3 7.20005H6.57V5.85005C6.66 4.59005 7.74 3.60005 9 3.60005C10.26 3.60005 11.34 4.59005 11.43 5.85005V7.20005H11.7C12.24 7.20005 12.6 7.56005 12.6 8.10005V11.7Z" fill="#107DCC"/>
</svg>
