<svg width="20" height="20" viewBox="0 0 20 20" fill="none" xmlns="http://www.w3.org/2000/svg">
<path d="M11.8084 11.4251L12.975 9.40841C13.05 9.28341 13.0167 9.12508 12.9084 9.03342L11.675 8.06675C11.7 7.88342 11.7167 7.69175 11.7167 7.50008C11.7167 7.30841 11.7 7.11675 11.675 6.92508L12.9084 5.95842C13.0167 5.86675 13.05 5.70841 12.975 5.58341L11.8084 3.56675C11.7334 3.44175 11.5834 3.39175 11.45 3.44175L10 4.02508C9.70002 3.79175 9.37502 3.60008 9.01669 3.45008L8.80002 1.90841C8.78604 1.84102 8.74955 1.78038 8.69655 1.73646C8.64354 1.69254 8.57718 1.66796 8.50836 1.66675H6.17502C6.03336 1.66675 5.90836 1.77508 5.88336 1.91675L5.66669 3.45841C5.31669 3.60841 4.98336 3.80008 4.68336 4.03341L3.23336 3.45008C3.10002 3.40008 2.95002 3.45008 2.87502 3.57508L1.70836 5.59175C1.63336 5.71675 1.66669 5.87508 1.77502 5.96675L3.00836 6.93341C2.98336 7.11675 2.96669 7.30841 2.96669 7.50008C2.96669 7.69175 2.98336 7.88341 3.00836 8.07508L1.77502 9.04175C1.66669 9.13342 1.63336 9.29175 1.70836 9.41675L2.87502 11.4334C2.95002 11.5584 3.10002 11.6084 3.23336 11.5584L4.68336 10.9751C4.98336 11.2084 5.30836 11.4001 5.66669 11.5501L5.88336 13.0917C5.90836 13.2251 6.03336 13.3334 6.17502 13.3334H8.50836C8.65002 13.3334 8.77502 13.2251 8.80002 13.0834L9.01669 11.5417C9.36669 11.3917 9.70002 11.2001 10 10.9667L11.45 11.5501C11.5834 11.6001 11.7334 11.5501 11.8084 11.4251ZM7.34169 9.16675C6.42502 9.16675 5.67502 8.41675 5.67502 7.50008C5.67502 6.58342 6.42502 5.83342 7.34169 5.83342C8.25836 5.83342 9.00836 6.58342 9.00836 7.50008C9.00836 8.41675 8.25836 9.16675 7.34169 9.16675ZM18.2667 15.5584L17.4667 14.9417C17.4834 14.8251 17.5 14.7001 17.5 14.5751C17.5 14.4501 17.4917 14.3251 17.4667 14.2084L18.2584 13.5917C18.325 13.5334 18.35 13.4334 18.3 13.3501L17.55 12.0584C17.5084 11.9751 17.4084 11.9501 17.3167 11.9751L16.3917 12.3501C16.2 12.2001 15.9917 12.0751 15.7584 11.9834L15.6167 11.0001C15.6134 10.9555 15.5937 10.9138 15.5613 10.883C15.529 10.8522 15.4863 10.8345 15.4417 10.8334H13.95C13.8584 10.8334 13.775 10.9001 13.7667 10.9917L13.625 11.9751C13.4 12.0751 13.1834 12.1917 12.9917 12.3417L12.0667 11.9667C12.0242 11.9508 11.9775 11.9504 11.9347 11.9656C11.892 11.9809 11.8561 12.0108 11.8334 12.0501L11.0834 13.3417C11.0417 13.4251 11.05 13.5251 11.125 13.5834L11.9167 14.2001C11.8823 14.4433 11.8823 14.6902 11.9167 14.9334L11.125 15.5501C11.0584 15.6084 11.0334 15.7084 11.0834 15.7917L11.8334 17.0834C11.875 17.1667 11.975 17.1917 12.0667 17.1667L12.9917 16.7917C13.1834 16.9417 13.3917 17.0667 13.625 17.1584L13.7667 18.1417C13.7834 18.2334 13.8584 18.3001 13.95 18.3001H15.4417C15.5334 18.3001 15.6167 18.2334 15.625 18.1417L15.7667 17.1584C15.9917 17.0584 16.2084 16.9417 16.3917 16.7917L17.325 17.1667C17.4084 17.2001 17.5084 17.1667 17.5584 17.0834L18.3084 15.7917C18.3584 15.7167 18.3334 15.6167 18.2667 15.5584ZM14.6917 15.6917C14.3932 15.6916 14.107 15.573 13.896 15.3618C13.685 15.1507 13.5666 14.8644 13.5667 14.5659C13.5668 14.2674 13.6855 13.9812 13.8966 13.7702C14.1077 13.5593 14.394 13.4408 14.6925 13.4409C14.991 13.441 15.2772 13.5597 15.4882 13.7708C15.6992 13.982 15.8176 14.2683 15.8175 14.5667C15.8174 14.8652 15.6987 15.1514 15.4876 15.3624C15.2765 15.5734 14.9902 15.6919 14.6917 15.6917Z" fill="#107DCC"/>
</svg>
