<svg width="14" height="14" viewBox="0 0 14 14" fill="none" xmlns="http://www.w3.org/2000/svg">
<path d="M13.0461 11.4546H10.8188C9.41533 11.4546 8.27344 10.3127 8.27344 8.90916C8.27344 7.50565 9.41533 6.36376 10.8188 6.36376H13.0461C13.222 6.36376 13.3643 6.22145 13.3643 6.04557V5.09104C13.3643 4.42383 12.8467 3.88121 12.1929 3.82859L10.3655 0.636878C10.1962 0.34169 9.92275 0.130709 9.59555 0.043101C9.26991 -0.0439103 8.92938 0.00178781 8.63792 0.171426L2.37373 3.81833H1.27354C0.571633 3.81833 0.000823975 4.38911 0.000823975 5.09104V12.7273C0.000823975 13.4292 0.571603 14 1.27354 14H12.0916C12.7935 14 13.3643 13.4292 13.3643 12.7273V11.7728C13.3643 11.5969 13.222 11.4546 13.0461 11.4546ZM10.7601 2.60739L11.4534 3.81833H8.68019L10.7601 2.60739ZM3.63848 3.81833L8.95825 0.721384C9.10212 0.637177 9.27021 0.614805 9.43087 0.657699C9.59338 0.70119 9.72886 0.806218 9.81307 0.953186L9.81372 0.954349L4.89461 3.81833H3.63848Z" fill="black"/>
</svg>
