<svg width="54" height="54" viewBox="0 0 54 54" fill="none" xmlns="http://www.w3.org/2000/svg">
<path d="M46.0631 34.5463H8.03952C5.00235 34.5463 2.53125 37.0174 2.53125 40.0546V48.4917C2.53125 51.5288 5.00235 53.9999 8.03952 53.9999H46.0631C49.1006 53.9999 51.5717 51.5288 51.5717 48.4917V40.0546C51.5713 37.0174 49.1002 34.5463 46.0631 34.5463Z" fill="#E0F4FF"/>
<path d="M46.0631 34.5463H27.0515V53.9999H46.0631C49.1007 53.9999 51.5718 51.5288 51.5718 48.4917V40.0546C51.5714 37.0174 49.1003 34.5463 46.0631 34.5463Z" fill="#BBDCFF"/>
<path d="M46.0631 34.5463H8.03952C5.00235 34.5463 2.53125 37.0174 2.53125 40.0546V48.4917C2.53125 51.5288 5.00235 53.9999 8.03952 53.9999H46.0631C49.1006 53.9999 51.5717 51.5288 51.5717 48.4917V40.0546C51.5713 37.0174 49.1002 34.5463 46.0631 34.5463ZM15.501 45.2201L15.0878 45.3544L15.3432 45.7058C15.857 46.4128 15.7 47.4024 14.993 47.9161C14.7125 48.12 14.3866 48.2185 14.0644 48.2185C13.575 48.2185 13.0925 47.9923 12.7827 47.5659L12.5277 47.2145L12.2723 47.5659C11.9629 47.9923 11.4804 48.2185 10.991 48.2185C10.6684 48.2185 10.3429 48.12 10.0624 47.9161C9.355 47.4024 9.19844 46.4128 9.71219 45.7058L9.96721 45.3544L9.5544 45.2201C8.72342 44.9502 8.26859 44.0574 8.53844 43.2265C8.8087 42.3951 9.70107 41.9402 10.5325 42.2105L10.9453 42.3444V41.9106C10.9453 41.0367 11.6539 40.3281 12.5277 40.3281C13.4015 40.3281 14.1102 41.0367 14.1102 41.9106V42.3444L14.523 42.2105C15.3544 41.9402 16.2467 42.3951 16.517 43.2265C16.7868 44.0574 16.332 44.9502 15.501 45.2201ZM25.1835 45.2201L24.7703 45.3544L25.0258 45.7058C25.5395 46.4128 25.3825 47.4024 24.6756 47.9161C24.395 48.12 24.0691 48.2185 23.7469 48.2185C23.2575 48.2185 22.7751 47.9923 22.4653 47.5659L22.2102 47.2149L21.9548 47.5659C21.6454 47.9923 21.163 48.2185 20.6735 48.2185C20.3509 48.2185 20.0255 48.12 19.7449 47.9161C19.0375 47.4024 18.881 46.4128 19.3947 45.7058L19.6497 45.3544L19.2369 45.2201C18.4059 44.9502 17.9511 44.0574 18.221 43.2265C18.4912 42.3951 19.3836 41.9402 20.215 42.2105L20.6278 42.3444V41.9106C20.6278 41.0367 21.3364 40.3281 22.2102 40.3281C23.0841 40.3281 23.7927 41.0367 23.7927 41.9106V42.3444L24.2055 42.2105C25.0369 41.9402 25.9297 42.3951 26.1995 43.2265C26.4694 44.0574 26.0145 44.9502 25.1835 45.2201ZM34.8661 45.2201L34.4529 45.3544L34.7083 45.7058C35.222 46.4128 35.0651 47.4024 34.3581 47.9161C34.0775 48.12 33.7516 48.2185 33.4295 48.2185C32.94 48.2185 32.4576 47.9923 32.1478 47.5659L31.8928 47.2149L31.6373 47.5659C31.3279 47.9923 30.8455 48.2185 30.356 48.2185C30.0335 48.2185 29.708 48.12 29.4274 47.9161C28.72 47.4024 28.5635 46.4128 29.0772 45.7058L29.3323 45.3544L28.9194 45.2201C28.0885 44.9502 27.6336 44.0574 27.9035 43.2265C28.1738 42.3951 29.0661 41.9402 29.8975 42.2105L30.3103 42.3444V41.9106C30.3103 41.0367 31.0189 40.3281 31.8928 40.3281C32.7666 40.3281 33.4752 41.0367 33.4752 41.9106V42.3444L33.888 42.2105C34.7194 41.9402 35.6118 42.3951 35.882 43.2265C36.1519 44.0574 35.6971 44.9502 34.8661 45.2201ZM44.5486 45.2201L44.1358 45.3544L44.3908 45.7058C44.9046 46.4128 44.748 47.4024 44.0406 47.9161C43.7601 48.12 43.4346 48.2185 43.112 48.2185C42.6226 48.2185 42.1401 47.9923 41.8303 47.5659L41.5753 47.2145L41.3203 47.5659C41.0105 47.9923 40.528 48.2185 40.0386 48.2185C39.7164 48.2185 39.3909 48.12 39.11 47.9161C38.403 47.4024 38.246 46.4128 38.7598 45.7058L39.0152 45.3544L38.602 45.2201C37.771 44.9502 37.3162 44.0574 37.5864 43.2265C37.8563 42.3951 38.7491 41.9402 39.58 42.2105L39.9928 42.3444V41.9106C39.9928 41.0367 40.7015 40.3281 41.5753 40.3281C42.4495 40.3281 43.1577 41.0367 43.1577 41.9106V42.3444L43.5705 42.2105C44.4019 41.9402 45.2947 42.3951 45.5646 43.2265C45.8348 44.0574 45.3796 44.9502 44.5486 45.2201Z" fill="#47568C"/>
<path d="M46.0631 34.5463H27.0515V53.9999H46.0631C49.1007 53.9999 51.5718 51.5288 51.5718 48.4917V40.0546C51.5714 37.0174 49.1003 34.5463 46.0631 34.5463ZM34.8661 45.2201L34.4529 45.3544L34.7083 45.7058C35.222 46.4128 35.0651 47.4024 34.3581 47.9161C34.0775 48.12 33.7517 48.2185 33.4295 48.2185C32.94 48.2185 32.4576 47.9923 32.1478 47.5659L31.8928 47.2149L31.6373 47.5659C31.3279 47.9923 30.8455 48.2185 30.3561 48.2185C30.0335 48.2185 29.708 48.12 29.4274 47.9161C28.7201 47.4024 28.5635 46.4128 29.0773 45.7058L29.3323 45.3544L28.9195 45.2201C28.0885 44.9502 27.6337 44.0574 27.9035 43.2265C28.1738 42.3951 29.0661 41.9402 29.8975 42.2105L30.3103 42.3444V41.9106C30.3103 41.0367 31.019 40.3281 31.8928 40.3281C32.7666 40.3281 33.4752 41.0367 33.4752 41.9106V42.3444L33.888 42.2105C34.7194 41.9402 35.6118 42.3951 35.882 43.2265C36.1519 44.0574 35.6971 44.9502 34.8661 45.2201ZM44.5486 45.2201L44.1358 45.3544L44.3908 45.7058C44.9046 46.4128 44.748 47.4024 44.0406 47.9161C43.7601 48.12 43.4346 48.2185 43.112 48.2185C42.6226 48.2185 42.1401 47.9923 41.8303 47.5659L41.5753 47.2145L41.3203 47.5659C41.0105 47.9923 40.528 48.2185 40.0386 48.2185C39.7164 48.2185 39.3909 48.12 39.11 47.9161C38.403 47.4024 38.246 46.4128 38.7598 45.7058L39.0152 45.3544L38.602 45.2201C37.771 44.9502 37.3162 44.0574 37.5864 43.2265C37.8563 42.3951 38.7491 41.9402 39.58 42.2105L39.9929 42.3444V41.9106C39.9929 41.0367 40.7015 40.3281 41.5753 40.3281C42.4495 40.3281 43.1577 41.0367 43.1577 41.9106V42.3444L43.5706 42.2105C44.4019 41.9402 45.2947 42.3951 45.5646 43.2265C45.8348 44.0574 45.3796 44.9502 44.5486 45.2201Z" fill="#2C3B73"/>
<path d="M32.9634 14.0706C32.0891 14.0706 31.3809 13.362 31.3809 12.4882V7.49446C31.3809 5.10699 29.4384 3.16489 27.0513 3.16489C24.6639 3.16489 22.7218 5.10699 22.7218 7.49446V12.4882C22.7218 13.362 22.0132 14.0706 21.1393 14.0706C20.2655 14.0706 19.5569 13.362 19.5569 12.4882V7.49446C19.5569 3.36182 22.9187 0 27.0513 0C31.1836 0 34.5454 3.36182 34.5454 7.49446V12.4882C34.5454 13.362 33.8372 14.0706 32.9634 14.0706Z" fill="#E0F4FF"/>
<path d="M27.0515 0V3.16489C29.4386 3.16489 31.3811 5.10699 31.3811 7.49446V12.4882C31.3811 13.362 32.0893 14.0706 32.9635 14.0706C33.8374 14.0706 34.5456 13.362 34.5456 12.4882V7.49446C34.5456 3.36182 31.1837 0 27.0515 0Z" fill="#BBDCFF"/>
<path d="M34.8311 10.9057H19.272C17.2595 10.9057 15.6218 12.5429 15.6218 14.5559V27.7626C15.6218 29.7751 17.2595 31.4128 19.272 31.4128H34.8311C36.8437 31.4128 38.4809 29.7751 38.4809 27.7626V14.5559C38.4809 12.5429 36.8437 10.9057 34.8311 10.9057Z" fill="#FFDF45"/>
<path d="M34.8311 10.9057H27.0515V31.4128H34.8311C36.8436 31.4128 38.4809 29.7751 38.4809 27.7626V14.5559C38.4809 12.5429 36.8436 10.9057 34.8311 10.9057Z" fill="#FFCE00"/>
<path d="M29.5127 19.8932C29.5127 18.5336 28.4106 17.4315 27.0515 17.4315C25.6919 17.4315 24.5898 18.5336 24.5898 19.8932C24.5898 20.65 24.9318 21.3265 25.469 21.7784V23.1985C25.469 24.0728 26.1776 24.781 27.0515 24.781C27.9253 24.781 28.6339 24.0728 28.6339 23.1985V21.7784C29.1711 21.3269 29.5127 20.65 29.5127 19.8932Z" fill="#FFAD36"/>
<path d="M28.634 23.1985V21.7784C29.1712 21.3269 29.5127 20.65 29.5127 19.8932C29.5127 18.5336 28.4107 17.4315 27.0515 17.4315V24.781C27.9253 24.781 28.634 24.0728 28.634 23.1985Z" fill="#FFA100"/>
</svg>
